<svg width="24" height="24" viewBox="0 0 24 24" fill="none" xmlns="http://www.w3.org/2000/svg">
<path d="M16.9999 20L12.5818 16.9815C12.2329 16.7431 11.7718 16.7498 11.4299 16.9981L7.43618 19.8995C6.65248 20.4689 5.59805 19.7028 5.89736 18.7815L7.41584 14.1075C7.54969 13.6955 7.40305 13.2441 7.05259 12.9895L3.07679 10.1007C2.29313 9.53127 2.69588 8.29172 3.66457 8.29168L8.57907 8.29149C9.01226 8.29148 9.39619 8.01254 9.53007 7.60055L11.0489 2.92664C11.3483 2.00537 12.6516 2.00538 12.951 2.92664L14.4698 7.60055C14.6037 8.01254 14.9877 8.29148 15.4209 8.29149L20.3353 8.29168C21.304 8.29172 21.7068 9.53127 20.9231 10.1007L17.2976 12.735" stroke="#B5B5B5" stroke-width="2" stroke-linecap="round"/>
<circle cx="17" cy="17" r="1" fill="#B5B5B5"/>
</svg>
