<svg width="24" height="24" viewBox="0 0 24 24" fill="none" xmlns="http://www.w3.org/2000/svg">
<circle cx="12" cy="18" r="0.5" transform="rotate(90 12 18)" fill="#EF6461" stroke="#EF6461"/>
<path d="M7.74471 11.6693L10.414 14.5C10.5095 14.5922 10.5857 14.7026 10.6381 14.8246C10.6905 14.9466 10.7181 15.0778 10.7193 15.2106C10.7204 15.3434 10.6951 15.4751 10.6448 15.598C10.5945 15.7208 10.5203 15.8325 10.4264 15.9264C10.3325 16.0203 10.2208 16.0945 10.098 16.1448C9.97506 16.1951 9.84338 16.2204 9.7106 16.2193C9.57782 16.2181 9.4466 16.1905 9.3246 16.1381C9.20259 16.0857 9.09225 16.0095 9 15.914L5.62371 12.3763C5.43624 12.1888 5.33093 11.9345 5.33093 11.6693C5.33093 11.4041 5.43624 11.1498 5.62371 10.9623L11.2807 5.30529C11.373 5.20978 11.4833 5.1336 11.6053 5.08119C11.7273 5.02878 11.8585 5.00119 11.9913 5.00004C12.1241 4.99888 12.2558 5.02419 12.3787 5.07447C12.5016 5.12475 12.6132 5.199 12.7071 5.29289C12.801 5.38679 12.8753 5.49844 12.9255 5.62133C12.9758 5.74423 13.0011 5.87591 13 6.00869C12.9988 6.14147 12.9712 6.27269 12.9188 6.39469C12.8664 6.5167 12.7902 6.62704 12.6947 6.71929L7.74471 11.6693Z" fill="#EF6461"/>
<circle cx="1" cy="1" r="0.5" transform="matrix(-4.37114e-08 -1 -1 4.37114e-08 18.6691 7)" fill="#EF6461" stroke="#EF6461"/>
<path d="M13.4138 12.3307L16.0831 9.5C16.1786 9.40775 16.2548 9.29741 16.3072 9.1754C16.3596 9.0534 16.3872 8.92218 16.3883 8.7894C16.3895 8.65662 16.3642 8.52494 16.3139 8.40205C16.2636 8.27915 16.1894 8.1675 16.0955 8.0736C16.0016 7.97971 15.8899 7.90546 15.767 7.85518C15.6441 7.8049 15.5124 7.7796 15.3797 7.78075C15.2469 7.7819 15.1157 7.80949 14.9937 7.8619C14.8717 7.91431 14.7613 7.99049 14.6691 8.086L11.2928 11.6237C11.1053 11.8112 11 12.0655 11 12.3307C11 12.5959 11.1053 12.8502 11.2928 13.0377L16.9498 18.6947C17.042 18.7902 17.1524 18.8664 17.2744 18.9188C17.3964 18.9712 17.5276 18.9988 17.6604 19C17.7932 19.0011 17.9248 18.9758 18.0477 18.9255C18.1706 18.8753 18.2823 18.801 18.3762 18.7071C18.4701 18.6132 18.5443 18.5016 18.5946 18.3787C18.6449 18.2558 18.6702 18.1241 18.669 17.9913C18.6679 17.8585 18.6403 17.7273 18.5879 17.6053C18.5355 17.4833 18.4593 17.373 18.3638 17.2807L13.4138 12.3307Z" fill="#EF6461"/>
</svg>
