<svg width="24" height="24" viewBox="0 0 24 24" fill="none" xmlns="http://www.w3.org/2000/svg">
<path d="M21 14.7292V6C21 4.89543 20.1046 4 19 4H5C3.89543 4 3 4.89543 3 6V18.7292C3 19.8338 3.89543 20.7292 5 20.7292H16.2353" stroke="#EF6461" stroke-width="2" stroke-linecap="round"/>
<path d="M7.17648 2C7.17648 1.44772 6.72877 1 6.17648 1C5.6242 1 5.17648 1.44772 5.17648 2H7.17648ZM5.17648 4V5H7.17648V4H5.17648ZM5.17648 2V4H7.17648V2H5.17648Z" fill="#EF6461"/>
<path d="M17.8235 8L7.23528 8" stroke="#EF6461" stroke-width="2" stroke-linecap="round"/>
<path d="M18.8235 2C18.8235 1.44772 18.3758 1 17.8235 1C17.2712 1 16.8235 1.44772 16.8235 2H18.8235ZM16.8235 4V5H18.8235V4H16.8235ZM16.8235 2V4H18.8235V2H16.8235Z" fill="#EF6461"/>
<ellipse cx="19.9412" cy="20" rx="1.05882" ry="1" fill="#EF6461"/>
<rect x="10.85" y="11.85" width="2.3" height="2.3" rx="1.15" fill="#EF6461" stroke="#EF6461" stroke-width="0.3"/>
<rect x="10.85" y="15.85" width="2.3" height="2.3" rx="1.15" fill="#EF6461" stroke="#EF6461" stroke-width="0.3"/>
<rect x="5.85" y="11.85" width="2.3" height="2.3" rx="1.15" fill="#EF6461" stroke="#EF6461" stroke-width="0.3"/>
<rect x="5.85" y="15.85" width="2.3" height="2.3" rx="1.15" fill="#EF6461" stroke="#EF6461" stroke-width="0.3"/>
<rect x="15.85" y="11.85" width="2.3" height="2.3" rx="1.15" fill="#EF6461" stroke="#EF6461" stroke-width="0.3"/>
<rect x="15.85" y="15.85" width="2.3" height="2.3" rx="1.15" fill="#EF6461" stroke="#EF6461" stroke-width="0.3"/>
</svg>
