<svg width="48" height="48" viewBox="0 0 48 48" fill="none" xmlns="http://www.w3.org/2000/svg">
<path d="M30 20C30 18.4087 29.3679 16.8826 28.2426 15.7574C27.1174 14.6321 25.5913 14 24 14C22.4087 14 20.8826 14.6321 19.7574 15.7574C18.6321 16.8826 18 18.4087 18 20C18 27 15 29 15 29H33C33 29 30 27 30 20Z" stroke="#21272A" stroke-width="2" stroke-linecap="round" stroke-linejoin="round"/>
<path d="M25.7295 33C25.5537 33.3031 25.3014 33.5547 24.9978 33.7295C24.6941 33.9044 24.3499 33.9965 23.9995 33.9965C23.6492 33.9965 23.3049 33.9044 23.0013 33.7295C22.6977 33.5547 22.4453 33.3031 22.2695 33" stroke="#21272A" stroke-width="2" stroke-linecap="round" stroke-linejoin="round"/>
<rect x="24" y="8" width="18" height="18" rx="9" fill="#DA1E28"/>
<path d="M31.4121 20.5918H31.5234C32.1484 20.5918 32.6562 20.5039 33.0469 20.3281C33.4375 20.1523 33.7383 19.916 33.9492 19.6191C34.1602 19.3223 34.3047 18.9883 34.3828 18.6172C34.4609 18.2422 34.5 17.8574 34.5 17.4629V16.1562C34.5 15.7695 34.4551 15.4258 34.3652 15.125C34.2793 14.8242 34.1582 14.5723 34.002 14.3691C33.8496 14.166 33.6758 14.0117 33.4805 13.9062C33.2852 13.8008 33.0781 13.748 32.8594 13.748C32.6094 13.748 32.3848 13.7988 32.1855 13.9004C31.9902 13.998 31.8242 14.1367 31.6875 14.3164C31.5547 14.4961 31.4531 14.707 31.3828 14.9492C31.3125 15.1914 31.2773 15.4551 31.2773 15.7402C31.2773 15.9941 31.3086 16.2402 31.3711 16.4785C31.4336 16.7168 31.5293 16.9316 31.6582 17.123C31.7871 17.3145 31.9473 17.4668 32.1387 17.5801C32.334 17.6895 32.5625 17.7441 32.8242 17.7441C33.0664 17.7441 33.293 17.6973 33.5039 17.6035C33.7188 17.5059 33.9082 17.375 34.0723 17.2109C34.2402 17.043 34.373 16.8535 34.4707 16.6426C34.5723 16.4316 34.6309 16.2109 34.6465 15.9805H35.1621C35.1621 16.3047 35.0977 16.625 34.9688 16.9414C34.8438 17.2539 34.668 17.5391 34.4414 17.7969C34.2148 18.0547 33.9492 18.2617 33.6445 18.418C33.3398 18.5703 33.0078 18.6465 32.6484 18.6465C32.2266 18.6465 31.8613 18.5645 31.5527 18.4004C31.2441 18.2363 30.9902 18.0176 30.791 17.7441C30.5957 17.4707 30.4492 17.166 30.3516 16.8301C30.2578 16.4902 30.2109 16.1465 30.2109 15.7988C30.2109 15.3926 30.2676 15.0117 30.3809 14.6562C30.4941 14.3008 30.6621 13.9883 30.8848 13.7188C31.1074 13.4453 31.3828 13.2324 31.7109 13.0801C32.043 12.9277 32.4258 12.8516 32.8594 12.8516C33.3477 12.8516 33.7637 12.9492 34.1074 13.1445C34.4512 13.3398 34.7305 13.6016 34.9453 13.9297C35.1641 14.2578 35.3242 14.627 35.4258 15.0371C35.5273 15.4473 35.5781 15.8691 35.5781 16.3027V16.6953C35.5781 17.1367 35.5488 17.5859 35.4902 18.043C35.4355 18.4961 35.3281 18.9297 35.168 19.3438C35.0117 19.7578 34.7832 20.1289 34.4824 20.457C34.1816 20.7812 33.7891 21.0391 33.3047 21.2305C32.8242 21.418 32.2305 21.5117 31.5234 21.5117H31.4121V20.5918Z" fill="white"/>
</svg>
