<svg width="47" height="52" viewBox="0 0 47 52" fill="none" xmlns="http://www.w3.org/2000/svg">
<path d="M17.5 11H22.5C22.7652 11 23.0196 11.1054 23.2071 11.2929C23.3946 11.4804 23.5 11.7348 23.5 12C23.5 12.2652 23.3946 12.5196 23.2071 12.7071C23.0196 12.8946 22.7652 13 22.5 13H17.5C17.2348 13 16.9804 12.8946 16.7929 12.7071C16.6054 12.5196 16.5 12.2652 16.5 12C16.5 11.7348 16.6054 11.4804 16.7929 11.2929C16.9804 11.1054 17.2348 11 17.5 11V11ZM24.5 19H29.5C29.7652 19 30.0196 19.1054 30.2071 19.2929C30.3946 19.4804 30.5 19.7348 30.5 20C30.5 20.2652 30.3946 20.5196 30.2071 20.7071C30.0196 20.8946 29.7652 21 29.5 21H24.5C24.2348 21 23.9804 20.8946 23.7929 20.7071C23.6054 20.5196 23.5 20.2652 23.5 20C23.5 19.7348 23.6054 19.4804 23.7929 19.2929C23.9804 19.1054 24.2348 19 24.5 19ZM17.5 15H29.5C29.7652 15 30.0196 15.1054 30.2071 15.2929C30.3946 15.4804 30.5 15.7348 30.5 16C30.5 16.2652 30.3946 16.5196 30.2071 16.7071C30.0196 16.8946 29.7652 17 29.5 17H17.5C17.2348 17 16.9804 16.8946 16.7929 16.7071C16.6054 16.5196 16.5 16.2652 16.5 16C16.5 15.7348 16.6054 15.4804 16.7929 15.2929C16.9804 15.1054 17.2348 15 17.5 15Z" fill="#001D6C"/>
<path d="M9.46484 37.4688H10.7773L13.2441 44.0488L15.7051 37.4688H17.0176L13.7598 46H12.7168L9.46484 37.4688ZM8.86719 37.4688H10.1152L10.332 43.1641V46H8.86719V37.4688ZM16.3672 37.4688H17.6211V46H16.1504V43.1641L16.3672 37.4688ZM22.0215 46.1172C21.5527 46.1172 21.1289 46.041 20.75 45.8887C20.375 45.7324 20.0547 45.5156 19.7891 45.2383C19.5273 44.9609 19.3262 44.6348 19.1855 44.2598C19.0449 43.8848 18.9746 43.4805 18.9746 43.0469V42.8125C18.9746 42.3164 19.0469 41.8672 19.1914 41.4648C19.3359 41.0625 19.5371 40.7188 19.7949 40.4336C20.0527 40.1445 20.3574 39.9238 20.709 39.7715C21.0605 39.6191 21.4414 39.543 21.8516 39.543C22.3047 39.543 22.7012 39.6191 23.041 39.7715C23.3809 39.9238 23.6621 40.1387 23.8848 40.416C24.1113 40.6895 24.2793 41.0156 24.3887 41.3945C24.502 41.7734 24.5586 42.1914 24.5586 42.6484V43.252H19.6602V42.2383H23.1641V42.127C23.1562 41.873 23.1055 41.6348 23.0117 41.4121C22.9219 41.1895 22.7832 41.0098 22.5957 40.873C22.4082 40.7363 22.1582 40.668 21.8457 40.668C21.6113 40.668 21.4023 40.7188 21.2188 40.8203C21.0391 40.918 20.8887 41.0605 20.7676 41.248C20.6465 41.4355 20.5527 41.6621 20.4863 41.9277C20.4238 42.1895 20.3926 42.4844 20.3926 42.8125V43.0469C20.3926 43.3242 20.4297 43.582 20.5039 43.8203C20.582 44.0547 20.6953 44.2598 20.8438 44.4355C20.9922 44.6113 21.1719 44.75 21.3828 44.8516C21.5938 44.9492 21.834 44.998 22.1035 44.998C22.4434 44.998 22.7461 44.9297 23.0117 44.793C23.2773 44.6562 23.5078 44.4629 23.7031 44.2129L24.4473 44.9336C24.3105 45.1328 24.1328 45.3242 23.9141 45.5078C23.6953 45.6875 23.4277 45.834 23.1113 45.9473C22.7988 46.0605 22.4355 46.1172 22.0215 46.1172ZM27.0605 41.0137V46H25.6484V39.6602H26.9785L27.0605 41.0137ZM26.8086 42.5957L26.3516 42.5898C26.3555 42.1406 26.418 41.7285 26.5391 41.3535C26.6641 40.9785 26.8359 40.6562 27.0547 40.3867C27.2773 40.1172 27.543 39.9102 27.8516 39.7656C28.1602 39.6172 28.5039 39.543 28.8828 39.543C29.1875 39.543 29.4629 39.5859 29.709 39.6719C29.959 39.7539 30.1719 39.8887 30.3477 40.0762C30.5273 40.2637 30.6641 40.5078 30.7578 40.8086C30.8516 41.1055 30.8984 41.4707 30.8984 41.9043V46H29.4805V41.8984C29.4805 41.5938 29.4355 41.3535 29.3457 41.1777C29.2598 40.998 29.1328 40.8711 28.9648 40.7969C28.8008 40.7188 28.5957 40.6797 28.3496 40.6797C28.1074 40.6797 27.8906 40.7305 27.6992 40.832C27.5078 40.9336 27.3457 41.0723 27.2129 41.248C27.084 41.4238 26.9844 41.627 26.9141 41.8574C26.8438 42.0879 26.8086 42.334 26.8086 42.5957ZM36.1543 44.5059V39.6602H37.5723V46H36.2363L36.1543 44.5059ZM36.3535 43.1875L36.8281 43.1758C36.8281 43.6016 36.7812 43.9941 36.6875 44.3535C36.5938 44.709 36.4492 45.0195 36.2539 45.2852C36.0586 45.5469 35.8086 45.752 35.5039 45.9004C35.1992 46.0449 34.834 46.1172 34.4082 46.1172C34.0996 46.1172 33.8164 46.0723 33.5586 45.9824C33.3008 45.8926 33.0781 45.7539 32.8906 45.5664C32.707 45.3789 32.5645 45.1348 32.4629 44.834C32.3613 44.5332 32.3105 44.1738 32.3105 43.7559V39.6602H33.7227V43.7676C33.7227 43.998 33.75 44.1914 33.8047 44.3477C33.8594 44.5 33.9336 44.623 34.0273 44.7168C34.1211 44.8105 34.2305 44.877 34.3555 44.916C34.4805 44.9551 34.6133 44.9746 34.7539 44.9746C35.1562 44.9746 35.4727 44.8965 35.7031 44.7402C35.9375 44.5801 36.1035 44.3652 36.2012 44.0957C36.3027 43.8262 36.3535 43.5234 36.3535 43.1875Z" fill="#001D6C"/>
</svg>
