<svg width="32" height="36" viewBox="0 0 32 36" fill="none" xmlns="http://www.w3.org/2000/svg">
<circle cx="15" cy="24" r="0.5" transform="rotate(90 15 24)" fill="#727272" stroke="#727272"/>
<path d="M10.7447 17.6693L13.414 20.5C13.5095 20.5922 13.5857 20.7026 13.6381 20.8246C13.6905 20.9466 13.7181 21.0778 13.7193 21.2106C13.7204 21.3434 13.6951 21.4751 13.6448 21.598C13.5945 21.7208 13.5203 21.8325 13.4264 21.9264C13.3325 22.0203 13.2208 22.0945 13.098 22.1448C12.9751 22.1951 12.8434 22.2204 12.7106 22.2193C12.5778 22.2181 12.4466 22.1905 12.3246 22.1381C12.2026 22.0857 12.0922 22.0095 12 21.914L8.62371 18.3763C8.43624 18.1888 8.33093 17.9345 8.33093 17.6693C8.33093 17.4041 8.43624 17.1498 8.62371 16.9623L14.2807 11.3053C14.373 11.2098 14.4833 11.1336 14.6053 11.0812C14.7273 11.0288 14.8585 11.0012 14.9913 11C15.1241 10.9989 15.2558 11.0242 15.3787 11.0745C15.5016 11.1247 15.6132 11.199 15.7071 11.2929C15.801 11.3868 15.8753 11.4984 15.9255 11.6213C15.9758 11.7442 16.0011 11.8759 16 12.0087C15.9988 12.1415 15.9712 12.2727 15.9188 12.3947C15.8664 12.5167 15.7902 12.627 15.6947 12.7193L10.7447 17.6693Z" fill="#727272"/>
</svg>
