<svg width="126" height="16" viewBox="0 0 126 16" fill="none" xmlns="http://www.w3.org/2000/svg">
<path d="M5.648 12.6379C4.912 12.6379 4.24533 12.5206 3.648 12.2859C3.06133 12.0406 2.55467 11.6779 2.128 11.1979C1.712 10.7179 1.392 10.1259 1.168 9.42192C0.944 8.70726 0.832 7.88059 0.832 6.94192C0.832 6.00326 0.944 5.17126 1.168 4.44592C1.392 3.70992 1.712 3.09659 2.128 2.60592C2.55467 2.10459 3.06133 1.72592 3.648 1.46992C4.24533 1.21392 4.912 1.08592 5.648 1.08592C6.65067 1.08592 7.48267 1.29926 8.144 1.72592C8.80533 2.15259 9.33333 2.79792 9.728 3.66192L7.92 4.62192C7.76 4.12059 7.49867 3.72059 7.136 3.42192C6.77333 3.11259 6.27733 2.95792 5.648 2.95792C4.85867 2.95792 4.22933 3.22459 3.76 3.75792C3.30133 4.29126 3.072 5.03792 3.072 5.99792V7.75792C3.072 8.72859 3.30133 9.47526 3.76 9.99792C4.22933 10.5099 4.85867 10.7659 5.648 10.7659C6.27733 10.7659 6.78933 10.5953 7.184 10.2539C7.58933 9.91259 7.88267 9.49126 8.064 8.98992L9.776 9.99792C9.37067 10.8299 8.832 11.4806 8.16 11.9499C7.488 12.4086 6.65067 12.6379 5.648 12.6379ZM14.7616 12.6379C14.1643 12.6379 13.6256 12.5366 13.1456 12.3339C12.6763 12.1313 12.271 11.8379 11.9296 11.4539C11.599 11.0699 11.343 10.6113 11.1616 10.0779C10.9803 9.53392 10.8896 8.92592 10.8896 8.25392C10.8896 7.58192 10.9803 6.97926 11.1616 6.44592C11.343 5.91259 11.599 5.45926 11.9296 5.08592C12.271 4.70192 12.6763 4.40859 13.1456 4.20592C13.6256 4.00326 14.1643 3.90192 14.7616 3.90192C15.359 3.90192 15.8976 4.00326 16.3776 4.20592C16.8576 4.40859 17.263 4.70192 17.5936 5.08592C17.935 5.45926 18.1963 5.91259 18.3776 6.44592C18.559 6.97926 18.6496 7.58192 18.6496 8.25392C18.6496 8.92592 18.559 9.53392 18.3776 10.0779C18.1963 10.6113 17.935 11.0699 17.5936 11.4539C17.263 11.8379 16.8576 12.1313 16.3776 12.3339C15.8976 12.5366 15.359 12.6379 14.7616 12.6379ZM14.7616 10.9899C15.3056 10.9899 15.7323 10.8246 16.0416 10.4939C16.351 10.1633 16.5056 9.67792 16.5056 9.03792V7.48592C16.5056 6.85659 16.351 6.37659 16.0416 6.04592C15.7323 5.71526 15.3056 5.54992 14.7616 5.54992C14.2283 5.54992 13.807 5.71526 13.4976 6.04592C13.1883 6.37659 13.0336 6.85659 13.0336 7.48592V9.03792C13.0336 9.67792 13.1883 10.1633 13.4976 10.4939C13.807 10.8246 14.2283 10.9899 14.7616 10.9899ZM20.4653 12.4459V4.09392H22.5133V5.48592H22.5933C22.7533 5.04859 23.0093 4.67526 23.3613 4.36592C23.7133 4.05659 24.2039 3.90192 24.8333 3.90192C25.4093 3.90192 25.9053 4.04059 26.3213 4.31792C26.7373 4.59526 27.0466 5.01659 27.2493 5.58192H27.2812C27.4306 5.11259 27.7239 4.71792 28.1613 4.39792C28.6093 4.06726 29.1693 3.90192 29.8413 3.90192C30.6626 3.90192 31.2919 4.18459 31.7293 4.74992C32.1773 5.31526 32.4013 6.12059 32.4013 7.16592V12.4459H30.3533V7.37392C30.3533 6.17926 29.9053 5.58192 29.0093 5.58192C28.8066 5.58192 28.6093 5.61392 28.4173 5.67792C28.2359 5.73126 28.0706 5.81659 27.9213 5.93392C27.7826 6.04059 27.6706 6.17926 27.5853 6.34992C27.4999 6.50992 27.4573 6.70192 27.4573 6.92592V12.4459H25.4093V7.37392C25.4093 6.17926 24.9613 5.58192 24.0653 5.58192C23.8733 5.58192 23.6813 5.61392 23.4893 5.67792C23.3079 5.73126 23.1426 5.81659 22.9933 5.93392C22.8546 6.04059 22.7373 6.17926 22.6413 6.34992C22.5559 6.50992 22.5133 6.70192 22.5133 6.92592V12.4459H20.4653ZM34.6684 4.09392H36.7164V5.46992H36.7804C36.9297 4.98992 37.2124 4.61126 37.6284 4.33392C38.0444 4.04592 38.5297 3.90192 39.0844 3.90192C40.151 3.90192 40.9617 4.28059 41.5164 5.03792C42.0817 5.78459 42.3644 6.85659 42.3644 8.25392C42.3644 9.66192 42.0817 10.7446 41.5164 11.5019C40.9617 12.2593 40.151 12.6379 39.0844 12.6379C38.5297 12.6379 38.0444 12.4939 37.6284 12.2059C37.223 11.9179 36.9404 11.5339 36.7804 11.0539H36.7164V15.6459H34.6684V4.09392ZM38.4284 10.9419C38.9617 10.9419 39.3937 10.7659 39.7244 10.4139C40.055 10.0619 40.2204 9.58726 40.2204 8.98992V7.54992C40.2204 6.95259 40.055 6.47792 39.7244 6.12592C39.3937 5.76326 38.9617 5.58192 38.4284 5.58192C37.9377 5.58192 37.527 5.70459 37.1964 5.94992C36.8764 6.19526 36.7164 6.52059 36.7164 6.92592V9.58192C36.7164 10.0193 36.8764 10.3553 37.1964 10.5899C37.527 10.8246 37.9377 10.9419 38.4284 10.9419ZM50.4061 12.4459C49.9581 12.4459 49.6008 12.3179 49.3341 12.0619C49.0781 11.7953 48.9181 11.4433 48.8541 11.0059H48.7581C48.6195 11.5499 48.3368 11.9606 47.9101 12.2379C47.4835 12.5046 46.9555 12.6379 46.3261 12.6379C45.4728 12.6379 44.8168 12.4139 44.3581 11.9659C43.8995 11.5179 43.6701 10.9206 43.6701 10.1739C43.6701 9.30992 43.9795 8.66992 44.5981 8.25392C45.2168 7.82726 46.0968 7.61392 47.2381 7.61392H48.6621V7.00592C48.6621 6.53659 48.5395 6.17392 48.2941 5.91792C48.0488 5.66192 47.6541 5.53392 47.1101 5.53392C46.6301 5.53392 46.2408 5.64059 45.9421 5.85392C45.6541 6.05659 45.4088 6.30192 45.2061 6.58992L43.9901 5.50192C44.2995 5.02192 44.7101 4.63792 45.2221 4.34992C45.7341 4.05126 46.4115 3.90192 47.2541 3.90192C48.3848 3.90192 49.2435 4.15792 49.8301 4.66992C50.4168 5.18192 50.7101 5.91792 50.7101 6.87792V10.8139H51.5421V12.4459H50.4061ZM47.0141 11.1499C47.4728 11.1499 47.8621 11.0486 48.1821 10.8459C48.5021 10.6433 48.6621 10.3446 48.6621 9.94992V8.84592H47.3501C46.2835 8.84592 45.7501 9.18726 45.7501 9.86992V10.1419C45.7501 10.4833 45.8568 10.7393 46.0701 10.9099C46.2941 11.0699 46.6088 11.1499 47.0141 11.1499ZM53.1996 12.4459V4.09392H55.2476V5.48592H55.3276C55.4983 5.03792 55.765 4.66459 56.1276 4.36592C56.501 4.05659 57.013 3.90192 57.6636 3.90192C58.5276 3.90192 59.189 4.18459 59.6476 4.74992C60.1063 5.31526 60.3356 6.12059 60.3356 7.16592V12.4459H58.2876V7.37392C58.2876 6.77659 58.181 6.32859 57.9676 6.02992C57.7543 5.73126 57.4023 5.58192 56.9116 5.58192C56.6983 5.58192 56.4903 5.61392 56.2876 5.67792C56.0956 5.73126 55.9196 5.81659 55.7596 5.93392C55.6103 6.04059 55.4876 6.17926 55.3916 6.34992C55.2956 6.50992 55.2476 6.70192 55.2476 6.92592V12.4459H53.1996ZM67.6009 4.09392H69.5209L66.1609 13.9339C66.0542 14.2326 65.9315 14.4886 65.7929 14.7019C65.6649 14.9259 65.5102 15.1073 65.3289 15.2459C65.1475 15.3846 64.9289 15.4859 64.6729 15.5499C64.4169 15.6139 64.1182 15.6459 63.7769 15.6459H62.5449V14.0139H64.0489L64.4329 12.8459L61.4409 4.09392H63.4729L64.9289 8.50992L65.4729 10.6219H65.5689L66.1449 8.50992L67.6009 4.09392ZM77.9808 6.71792L76.8288 4.39792H76.7808V12.4459H74.7808V1.27792H77.1008L80.4608 7.00592L81.6128 9.32592H81.6608V1.27792H83.6608V12.4459H81.3408L77.9808 6.71792ZM92.2968 12.4459C91.8488 12.4459 91.4914 12.3179 91.2248 12.0619C90.9688 11.7953 90.8088 11.4433 90.7448 11.0059H90.6488C90.5101 11.5499 90.2274 11.9606 89.8008 12.2379C89.3741 12.5046 88.8461 12.6379 88.2168 12.6379C87.3634 12.6379 86.7074 12.4139 86.2488 11.9659C85.7901 11.5179 85.5608 10.9206 85.5608 10.1739C85.5608 9.30992 85.8701 8.66992 86.4888 8.25392C87.1074 7.82726 87.9874 7.61392 89.1288 7.61392H90.5528V7.00592C90.5528 6.53659 90.4301 6.17392 90.1848 5.91792C89.9394 5.66192 89.5448 5.53392 89.0008 5.53392C88.5208 5.53392 88.1314 5.64059 87.8328 5.85392C87.5448 6.05659 87.2994 6.30192 87.0968 6.58992L85.8808 5.50192C86.1901 5.02192 86.6008 4.63792 87.1128 4.34992C87.6248 4.05126 88.3021 3.90192 89.1448 3.90192C90.2754 3.90192 91.1341 4.15792 91.7208 4.66992C92.3074 5.18192 92.6008 5.91792 92.6008 6.87792V10.8139H93.4328V12.4459H92.2968ZM88.9048 11.1499C89.3634 11.1499 89.7528 11.0486 90.0728 10.8459C90.3928 10.6433 90.5528 10.3446 90.5528 9.94992V8.84592H89.2408C88.1741 8.84592 87.6408 9.18726 87.6408 9.86992V10.1419C87.6408 10.4833 87.7474 10.7393 87.9608 10.9099C88.1848 11.0699 88.4994 11.1499 88.9048 11.1499ZM95.0903 12.4459V4.09392H97.1383V5.48592H97.2183C97.3783 5.04859 97.6343 4.67526 97.9863 4.36592C98.3383 4.05659 98.8289 3.90192 99.4583 3.90192C100.034 3.90192 100.53 4.04059 100.946 4.31792C101.362 4.59526 101.672 5.01659 101.874 5.58192H101.906C102.056 5.11259 102.349 4.71792 102.786 4.39792C103.234 4.06726 103.794 3.90192 104.466 3.90192C105.288 3.90192 105.917 4.18459 106.354 4.74992C106.802 5.31526 107.026 6.12059 107.026 7.16592V12.4459H104.978V7.37392C104.978 6.17926 104.53 5.58192 103.634 5.58192C103.432 5.58192 103.234 5.61392 103.042 5.67792C102.861 5.73126 102.696 5.81659 102.546 5.93392C102.408 6.04059 102.296 6.17926 102.21 6.34992C102.125 6.50992 102.082 6.70192 102.082 6.92592V12.4459H100.034V7.37392C100.034 6.17926 99.5863 5.58192 98.6903 5.58192C98.4983 5.58192 98.3063 5.61392 98.1143 5.67792C97.9329 5.73126 97.7676 5.81659 97.6183 5.93392C97.4796 6.04059 97.3623 6.17926 97.2663 6.34992C97.1809 6.50992 97.1383 6.70192 97.1383 6.92592V12.4459H95.0903ZM112.669 12.6379C112.051 12.6379 111.496 12.5366 111.005 12.3339C110.525 12.1206 110.115 11.8273 109.773 11.4539C109.443 11.0699 109.187 10.6113 109.005 10.0779C108.824 9.53392 108.733 8.92592 108.733 8.25392C108.733 7.59259 108.819 6.99526 108.989 6.46192C109.171 5.92859 109.427 5.47526 109.757 5.10192C110.088 4.71792 110.493 4.42459 110.973 4.22192C111.453 4.00859 111.997 3.90192 112.605 3.90192C113.256 3.90192 113.821 4.01392 114.301 4.23792C114.781 4.46192 115.176 4.76592 115.485 5.14992C115.795 5.53392 116.024 5.98192 116.173 6.49392C116.333 6.99526 116.413 7.53392 116.413 8.10992V8.78192H110.861V8.98992C110.861 9.59792 111.032 10.0886 111.373 10.4619C111.715 10.8246 112.221 11.0059 112.893 11.0059C113.405 11.0059 113.821 10.8993 114.141 10.6859C114.472 10.4726 114.765 10.2006 115.021 9.86992L116.125 11.1019C115.784 11.5819 115.315 11.9606 114.717 12.2379C114.131 12.5046 113.448 12.6379 112.669 12.6379ZM112.637 5.43792C112.093 5.43792 111.661 5.61926 111.341 5.98192C111.021 6.34459 110.861 6.81392 110.861 7.38992V7.51792H114.285V7.37392C114.285 6.79792 114.141 6.33392 113.853 5.98192C113.576 5.61926 113.171 5.43792 112.637 5.43792Z" fill="#21272A"/>
<path d="M119.567 7.93392L118.127 6.94192L119.983 4.66992L117.247 3.86992L117.791 2.26992L120.415 3.32592L120.271 0.493922H122.063L121.935 3.32592L124.543 2.26992L125.087 3.86992L122.351 4.66992L124.207 6.94192L122.767 7.91792L121.167 5.51792L119.567 7.93392Z" fill="#CA310F"/>
</svg>
