<svg width="51" height="13" viewBox="0 0 51 13" fill="none" xmlns="http://www.w3.org/2000/svg">
<path d="M3.512 6.71792L2.36 4.39792H2.312V12.4459H0.312V1.27792H2.632L5.992 7.00592L7.144 9.32592H7.192V1.27792H9.192V12.4459H6.872L3.512 6.71792ZM17.828 12.4459C17.38 12.4459 17.0227 12.3179 16.756 12.0619C16.5 11.7953 16.34 11.4433 16.276 11.0059H16.18C16.0413 11.5499 15.7587 11.9606 15.332 12.2379C14.9053 12.5046 14.3773 12.6379 13.748 12.6379C12.8947 12.6379 12.2387 12.4139 11.78 11.9659C11.3213 11.5179 11.092 10.9206 11.092 10.1739C11.092 9.30992 11.4013 8.66992 12.02 8.25392C12.6387 7.82726 13.5187 7.61392 14.66 7.61392H16.084V7.00592C16.084 6.53659 15.9613 6.17392 15.716 5.91792C15.4707 5.66192 15.076 5.53392 14.532 5.53392C14.052 5.53392 13.6627 5.64059 13.364 5.85392C13.076 6.05659 12.8307 6.30192 12.628 6.58992L11.412 5.50192C11.7213 5.02192 12.132 4.63792 12.644 4.34992C13.156 4.05126 13.8333 3.90192 14.676 3.90192C15.8067 3.90192 16.6653 4.15792 17.252 4.66992C17.8387 5.18192 18.132 5.91792 18.132 6.87792V10.8139H18.964V12.4459H17.828ZM14.436 11.1499C14.8947 11.1499 15.284 11.0486 15.604 10.8459C15.924 10.6433 16.084 10.3446 16.084 9.94992V8.84592H14.772C13.7053 8.84592 13.172 9.18726 13.172 9.86992V10.1419C13.172 10.4833 13.2787 10.7393 13.492 10.9099C13.716 11.0699 14.0307 11.1499 14.436 11.1499ZM20.6215 12.4459V4.09392H22.6695V5.48592H22.7495C22.9095 5.04859 23.1655 4.67526 23.5175 4.36592C23.8695 4.05659 24.3602 3.90192 24.9895 3.90192C25.5655 3.90192 26.0615 4.04059 26.4775 4.31792C26.8935 4.59526 27.2028 5.01659 27.4055 5.58192H27.4375C27.5868 5.11259 27.8802 4.71792 28.3175 4.39792C28.7655 4.06726 29.3255 3.90192 29.9975 3.90192C30.8188 3.90192 31.4482 4.18459 31.8855 4.74992C32.3335 5.31526 32.5575 6.12059 32.5575 7.16592V12.4459H30.5095V7.37392C30.5095 6.17926 30.0615 5.58192 29.1655 5.58192C28.9628 5.58192 28.7655 5.61392 28.5735 5.67792C28.3922 5.73126 28.2268 5.81659 28.0775 5.93392C27.9388 6.04059 27.8268 6.17926 27.7415 6.34992C27.6562 6.50992 27.6135 6.70192 27.6135 6.92592V12.4459H25.5655V7.37392C25.5655 6.17926 25.1175 5.58192 24.2215 5.58192C24.0295 5.58192 23.8375 5.61392 23.6455 5.67792C23.4642 5.73126 23.2988 5.81659 23.1495 5.93392C23.0108 6.04059 22.8935 6.17926 22.7975 6.34992C22.7122 6.50992 22.6695 6.70192 22.6695 6.92592V12.4459H20.6215ZM38.2006 12.6379C37.582 12.6379 37.0273 12.5366 36.5366 12.3339C36.0566 12.1206 35.646 11.8273 35.3046 11.4539C34.974 11.0699 34.718 10.6113 34.5366 10.0779C34.3553 9.53392 34.2646 8.92592 34.2646 8.25392C34.2646 7.59259 34.35 6.99526 34.5206 6.46192C34.702 5.92859 34.958 5.47526 35.2886 5.10192C35.6193 4.71792 36.0246 4.42459 36.5046 4.22192C36.9846 4.00859 37.5286 3.90192 38.1366 3.90192C38.7873 3.90192 39.3526 4.01392 39.8326 4.23792C40.3126 4.46192 40.7073 4.76592 41.0166 5.14992C41.326 5.53392 41.5553 5.98192 41.7046 6.49392C41.8646 6.99526 41.9446 7.53392 41.9446 8.10992V8.78192H36.3926V8.98992C36.3926 9.59792 36.5633 10.0886 36.9046 10.4619C37.246 10.8246 37.7526 11.0059 38.4246 11.0059C38.9366 11.0059 39.3526 10.8993 39.6726 10.6859C40.0033 10.4726 40.2966 10.2006 40.5526 9.86992L41.6566 11.1019C41.3153 11.5819 40.846 11.9606 40.2486 12.2379C39.662 12.5046 38.9793 12.6379 38.2006 12.6379ZM38.1686 5.43792C37.6246 5.43792 37.1926 5.61926 36.8726 5.98192C36.5526 6.34459 36.3926 6.81392 36.3926 7.38992V7.51792H39.8166V7.37392C39.8166 6.79792 39.6726 6.33392 39.3846 5.98192C39.1073 5.61926 38.702 5.43792 38.1686 5.43792Z" fill="#21272A"/>
<path d="M45.098 7.93392L43.658 6.94192L45.514 4.66992L42.778 3.86992L43.322 2.26992L45.946 3.32592L45.802 0.493922H47.594L47.466 3.32592L50.074 2.26992L50.618 3.86992L47.882 4.66992L49.738 6.94192L48.298 7.91792L46.698 5.51792L45.098 7.93392Z" fill="#CA310F"/>
</svg>
