<svg width="24" height="24" viewBox="0 0 24 24" fill="none" xmlns="http://www.w3.org/2000/svg">
<circle cx="17" cy="12" r="1" fill="#727272"/>
<path d="M18 9C18 5.68629 15.3137 3 12 3C8.68629 3 6 5.68629 6 9C6 12.3137 8.68629 15 12 15C13.076 15 14.0859 14.7167 14.9592 14.2207" stroke="#727272" stroke-width="2" stroke-linecap="round"/>
<path fill-rule="evenodd" clip-rule="evenodd" d="M7.89416 14.6699L7.01008 20.8585C6.95506 21.2436 7.12841 21.6257 7.45448 21.838C7.78054 22.0503 8.20011 22.0541 8.53003 21.8479L12 19.6792L15.47 21.8479C15.8106 22.0608 16.2454 22.0492 16.5742 21.8186C16.903 21.588 17.062 21.1831 16.9778 20.7904L15.7219 14.9295C15.1494 15.2897 14.5211 15.5692 13.8528 15.7521L14.5274 18.9003L12.53 17.6519C12.2058 17.4493 11.7943 17.4493 11.47 17.6519L9.29419 19.0118L9.77599 15.6392C9.09621 15.4116 8.46293 15.0825 7.89416 14.6699Z" fill="#727272"/>
</svg>
