<svg width="25" height="24" viewBox="0 0 25 24" fill="none" xmlns="http://www.w3.org/2000/svg">

<path d="M12.5707 13.3139L17.5207 8.36388C17.6129 8.26837 17.7232 8.19219 17.8453 8.13978C17.9673 8.08737 18.0985 8.05979 18.2313 8.05863C18.364 8.05748 18.4957 8.08278 18.6186 8.13306C18.7415 8.18334 18.8532 8.25759 18.9471 8.35149C19.0409 8.44538 19.1152 8.55703 19.1655 8.67993C19.2158 8.80282 19.2411 8.9345 19.2399 9.06728C19.2388 9.20006 19.2112 9.33128 19.1588 9.45329C19.1063 9.57529 19.0302 9.68564 18.9347 9.77788L13.2777 15.4349C13.0901 15.6224 12.8358 15.7277 12.5707 15.7277C12.3055 15.7277 12.0512 15.6224 11.8637 15.4349L6.20666 9.77788C6.11115 9.68564 6.03496 9.57529 5.98255 9.45329C5.93014 9.33128 5.90256 9.20006 5.9014 9.06728C5.90025 8.9345 5.92555 8.80282 5.97583 8.67993C6.02611 8.55703 6.10037 8.44538 6.19426 8.35149C6.28815 8.25759 6.39981 8.18334 6.5227 8.13306C6.6456 8.08278 6.77728 8.05748 6.91006 8.05863C7.04284 8.05979 7.17406 8.08737 7.29606 8.13978C7.41806 8.19219 7.52841 8.26837 7.62066 8.36388L12.5707 13.3139Z" fill="#ffffff"/>
</svg>
