<svg width="25" height="24" viewBox="0 0 25 24" fill="none" xmlns="http://www.w3.org/2000/svg">
<g clip-path="url(#clip0_538_74399)">
<path d="M17.8594 21V19C17.8594 17.9391 17.4379 16.9217 16.6878 16.1716C15.9377 15.4214 14.9202 15 13.8594 15H5.85938C4.79851 15 3.78109 15.4214 3.03095 16.1716C2.2808 16.9217 1.85938 17.9391 1.85938 19V21" stroke="#B5B5B5" stroke-width="2" stroke-linecap="round" stroke-linejoin="round"/>
<path d="M9.85938 11C12.0685 11 13.8594 9.20914 13.8594 7C13.8594 4.79086 12.0685 3 9.85938 3C7.65024 3 5.85938 4.79086 5.85938 7C5.85938 9.20914 7.65024 11 9.85938 11Z" stroke="#B5B5B5" stroke-width="2" stroke-linecap="round" stroke-linejoin="round"/>
<path d="M23.8594 21.0009V19.0009C23.8587 18.1146 23.5637 17.2536 23.0207 16.5532C22.4778 15.8527 21.7175 15.3524 20.8594 15.1309" stroke="#B5B5B5" stroke-width="2" stroke-linecap="round" stroke-linejoin="round"/>
<path d="M16.8594 3.13086C17.7198 3.35116 18.4824 3.85156 19.027 4.55317C19.5716 5.25478 19.8672 6.11769 19.8672 7.00586C19.8672 7.89403 19.5716 8.75694 19.027 9.45855C18.4824 10.1602 17.7198 10.6606 16.8594 10.8809" stroke="#B5B5B5" stroke-width="2" stroke-linecap="round" stroke-linejoin="round"/>
</g>
<defs>
<clipPath id="clip0_538_74399">
<rect width="24" height="24" fill="white" transform="translate(0.859375)"/>
</clipPath>
</defs>
</svg>
